<mxfile host="Electron" modified="2023-04-29T03:44:15.360Z" agent="Mozilla/5.0 (Windows NT 10.0; Win64; x64) AppleWebKit/537.36 (KHTML, like Gecko) draw.io/21.2.1 Chrome/112.0.5615.87 Electron/24.1.2 Safari/537.36" etag="aw6fuaY1tEB_z6yZecge" version="21.2.1" type="device">
  <diagram name="Page-1" id="Ceq4f-5aNkv06xr2KZUZ">
    <mxGraphModel dx="1100" dy="1182" grid="0" gridSize="10" guides="1" tooltips="1" connect="1" arrows="1" fold="1" page="1" pageScale="1" pageWidth="1169" pageHeight="827" math="0" shadow="0">
      <root>
        <mxCell id="0" />
        <mxCell id="1" parent="0" />
        <mxCell id="Iw-2HoXwkp1vUkzKYjUI-1" value="UI" style="shape=umlLifeline;perimeter=lifelinePerimeter;whiteSpace=wrap;html=1;container=1;collapsible=0;recursiveResize=0;outlineConnect=0;rounded=1;shadow=0;comic=0;labelBackgroundColor=none;strokeWidth=1;fontFamily=Verdana;fontSize=12;align=center;fillColor=#dae8fc;strokeColor=#6c8ebf;" parent="1" vertex="1">
          <mxGeometry x="388" y="26" width="100" height="320" as="geometry" />
        </mxCell>
        <mxCell id="Iw-2HoXwkp1vUkzKYjUI-2" value="" style="html=1;points=[];perimeter=orthogonalPerimeter;rounded=0;shadow=0;comic=0;labelBackgroundColor=none;strokeWidth=1;fontFamily=Verdana;fontSize=12;align=center;fillColor=#dae8fc;strokeColor=#6c8ebf;" parent="Iw-2HoXwkp1vUkzKYjUI-1" vertex="1">
          <mxGeometry x="45" y="60" width="10" height="220" as="geometry" />
        </mxCell>
        <mxCell id="Iw-2HoXwkp1vUkzKYjUI-3" value="&lt;font face=&quot;Verdana&quot; style=&quot;font-size: 12px;&quot;&gt;2. Validation&lt;/font&gt;" style="html=1;align=left;spacingLeft=2;endArrow=block;rounded=0;edgeStyle=orthogonalEdgeStyle;curved=0;rounded=0;" parent="Iw-2HoXwkp1vUkzKYjUI-1" edge="1">
          <mxGeometry relative="1" as="geometry">
            <mxPoint x="67" y="61" as="sourcePoint" />
            <Array as="points">
              <mxPoint x="97" y="61" />
              <mxPoint x="97" y="121" />
            </Array>
            <mxPoint x="57" y="121" as="targetPoint" />
          </mxGeometry>
        </mxCell>
        <mxCell id="Iw-2HoXwkp1vUkzKYjUI-4" value="Controller" style="shape=umlLifeline;perimeter=lifelinePerimeter;whiteSpace=wrap;html=1;container=1;collapsible=0;recursiveResize=0;outlineConnect=0;rounded=1;shadow=0;comic=0;labelBackgroundColor=none;strokeWidth=1;fontFamily=Verdana;fontSize=12;align=center;fillColor=#dae8fc;strokeColor=#6c8ebf;" parent="1" vertex="1">
          <mxGeometry x="568" y="26" width="100" height="320" as="geometry" />
        </mxCell>
        <mxCell id="Iw-2HoXwkp1vUkzKYjUI-5" value="" style="html=1;points=[];perimeter=orthogonalPerimeter;rounded=0;shadow=0;comic=0;labelBackgroundColor=none;strokeWidth=1;fontFamily=Verdana;fontSize=12;align=center;fillColor=#dae8fc;strokeColor=#6c8ebf;" parent="Iw-2HoXwkp1vUkzKYjUI-4" vertex="1">
          <mxGeometry x="45" y="60" width="10" height="220" as="geometry" />
        </mxCell>
        <mxCell id="Iw-2HoXwkp1vUkzKYjUI-6" value="DB" style="shape=umlLifeline;perimeter=lifelinePerimeter;whiteSpace=wrap;html=1;container=1;collapsible=0;recursiveResize=0;outlineConnect=0;rounded=1;shadow=0;comic=0;labelBackgroundColor=none;strokeWidth=1;fontFamily=Verdana;fontSize=12;align=center;fillColor=#dae8fc;strokeColor=#6c8ebf;" parent="1" vertex="1">
          <mxGeometry x="733" y="26" width="100" height="320" as="geometry" />
        </mxCell>
        <mxCell id="Iw-2HoXwkp1vUkzKYjUI-7" value="" style="html=1;points=[];perimeter=orthogonalPerimeter;rounded=0;shadow=0;comic=0;labelBackgroundColor=none;strokeWidth=1;fontFamily=Verdana;fontSize=12;align=center;fillColor=#dae8fc;strokeColor=#6c8ebf;" parent="Iw-2HoXwkp1vUkzKYjUI-6" vertex="1">
          <mxGeometry x="45" y="60" width="10" height="220" as="geometry" />
        </mxCell>
        <mxCell id="Iw-2HoXwkp1vUkzKYjUI-8" value="Passenger" style="shape=umlLifeline;perimeter=lifelinePerimeter;whiteSpace=wrap;html=1;container=1;collapsible=0;recursiveResize=0;outlineConnect=0;rounded=1;shadow=0;comic=0;labelBackgroundColor=none;strokeWidth=1;fontFamily=Verdana;fontSize=12;align=center;fillColor=#dae8fc;strokeColor=#6c8ebf;" parent="1" vertex="1">
          <mxGeometry x="209" y="26" width="100" height="320" as="geometry" />
        </mxCell>
        <mxCell id="Iw-2HoXwkp1vUkzKYjUI-9" value="" style="html=1;points=[];perimeter=orthogonalPerimeter;rounded=0;shadow=0;comic=0;labelBackgroundColor=none;strokeWidth=1;fontFamily=Verdana;fontSize=12;align=center;fillColor=#dae8fc;strokeColor=#6c8ebf;" parent="Iw-2HoXwkp1vUkzKYjUI-8" vertex="1">
          <mxGeometry x="45" y="60" width="10" height="220" as="geometry" />
        </mxCell>
        <mxCell id="Iw-2HoXwkp1vUkzKYjUI-10" value="4. Input info valided" style="html=1;verticalAlign=bottom;endArrow=block;labelBackgroundColor=none;fontFamily=Verdana;fontSize=12;edgeStyle=elbowEdgeStyle;elbow=vertical;" parent="1" source="Iw-2HoXwkp1vUkzKYjUI-5" target="Iw-2HoXwkp1vUkzKYjUI-7" edge="1">
          <mxGeometry relative="1" as="geometry">
            <mxPoint x="669" y="126" as="sourcePoint" />
            <Array as="points">
              <mxPoint x="699" y="186" />
              <mxPoint x="619" y="126" />
            </Array>
          </mxGeometry>
        </mxCell>
        <mxCell id="Iw-2HoXwkp1vUkzKYjUI-11" value="1. Input info" style="html=1;verticalAlign=bottom;endArrow=block;entryX=0;entryY=0.452;labelBackgroundColor=none;fontFamily=Verdana;fontSize=12;edgeStyle=elbowEdgeStyle;elbow=vertical;entryDx=0;entryDy=0;entryPerimeter=0;exitX=0.944;exitY=0.453;exitDx=0;exitDy=0;exitPerimeter=0;" parent="1" source="Iw-2HoXwkp1vUkzKYjUI-9" target="Iw-2HoXwkp1vUkzKYjUI-2" edge="1">
          <mxGeometry relative="1" as="geometry">
            <mxPoint x="269" y="185" as="sourcePoint" />
            <mxPoint x="439" y="184.99" as="targetPoint" />
            <Array as="points" />
          </mxGeometry>
        </mxCell>
        <mxCell id="Iw-2HoXwkp1vUkzKYjUI-12" value="3. getFlightAvai()" style="html=1;verticalAlign=bottom;endArrow=block;labelBackgroundColor=none;fontFamily=Verdana;fontSize=12;edgeStyle=elbowEdgeStyle;elbow=vertical;entryX=0.03;entryY=0.451;entryDx=0;entryDy=0;entryPerimeter=0;exitX=1.011;exitY=0.451;exitDx=0;exitDy=0;exitPerimeter=0;" parent="1" source="Iw-2HoXwkp1vUkzKYjUI-2" target="Iw-2HoXwkp1vUkzKYjUI-5" edge="1">
          <mxGeometry relative="1" as="geometry">
            <mxPoint x="454" y="185" as="sourcePoint" />
            <mxPoint x="596" y="187" as="targetPoint" />
            <Array as="points" />
          </mxGeometry>
        </mxCell>
        <mxCell id="Iw-2HoXwkp1vUkzKYjUI-13" value="&lt;font face=&quot;Verdana&quot; style=&quot;font-size: 12px;&quot;&gt;6. View List flight&lt;/font&gt;" style="html=1;verticalAlign=bottom;endArrow=open;dashed=1;endSize=8;edgeStyle=elbowEdgeStyle;elbow=vertical;curved=0;rounded=0;exitX=-0.039;exitY=0.728;exitDx=0;exitDy=0;exitPerimeter=0;entryX=1.011;entryY=0.725;entryDx=0;entryDy=0;entryPerimeter=0;" parent="1" source="Iw-2HoXwkp1vUkzKYjUI-5" target="Iw-2HoXwkp1vUkzKYjUI-2" edge="1">
          <mxGeometry relative="1" as="geometry">
            <mxPoint x="612" y="246" as="sourcePoint" />
            <mxPoint x="454" y="246" as="targetPoint" />
          </mxGeometry>
        </mxCell>
        <mxCell id="Iw-2HoXwkp1vUkzKYjUI-14" value="&lt;font face=&quot;Verdana&quot; style=&quot;font-size: 12px;&quot;&gt;5. List flight available&lt;/font&gt;" style="html=1;verticalAlign=bottom;endArrow=open;dashed=1;endSize=8;edgeStyle=elbowEdgeStyle;elbow=vertical;curved=0;rounded=0;exitX=-0.041;exitY=0.723;exitDx=0;exitDy=0;exitPerimeter=0;" parent="1" source="Iw-2HoXwkp1vUkzKYjUI-7" target="Iw-2HoXwkp1vUkzKYjUI-5" edge="1">
          <mxGeometry relative="1" as="geometry">
            <mxPoint x="776" y="245" as="sourcePoint" />
            <mxPoint x="639" y="246" as="targetPoint" />
            <Array as="points">
              <mxPoint x="775" y="245" />
            </Array>
          </mxGeometry>
        </mxCell>
        <mxCell id="Iw-2HoXwkp1vUkzKYjUI-15" value="UI" style="shape=umlLifeline;perimeter=lifelinePerimeter;whiteSpace=wrap;html=1;container=1;collapsible=0;recursiveResize=0;outlineConnect=0;rounded=1;shadow=0;comic=0;labelBackgroundColor=none;strokeWidth=1;fontFamily=Verdana;fontSize=12;align=center;fillColor=#dae8fc;strokeColor=#6c8ebf;" parent="1" vertex="1">
          <mxGeometry x="388" y="476" width="100" height="320" as="geometry" />
        </mxCell>
        <mxCell id="Iw-2HoXwkp1vUkzKYjUI-16" value="" style="html=1;points=[];perimeter=orthogonalPerimeter;rounded=0;shadow=0;comic=0;labelBackgroundColor=none;strokeWidth=1;fontFamily=Verdana;fontSize=12;align=center;fillColor=#dae8fc;strokeColor=#6c8ebf;" parent="Iw-2HoXwkp1vUkzKYjUI-15" vertex="1">
          <mxGeometry x="45" y="60" width="10" height="220" as="geometry" />
        </mxCell>
        <mxCell id="Iw-2HoXwkp1vUkzKYjUI-17" value="&lt;font face=&quot;Verdana&quot; style=&quot;font-size: 12px;&quot;&gt;2. Validation&lt;/font&gt;" style="html=1;align=left;spacingLeft=2;endArrow=block;rounded=0;edgeStyle=orthogonalEdgeStyle;curved=0;rounded=0;" parent="Iw-2HoXwkp1vUkzKYjUI-15" edge="1">
          <mxGeometry relative="1" as="geometry">
            <mxPoint x="67" y="61" as="sourcePoint" />
            <Array as="points">
              <mxPoint x="97" y="61" />
              <mxPoint x="97" y="121" />
            </Array>
            <mxPoint x="57" y="121" as="targetPoint" />
          </mxGeometry>
        </mxCell>
        <mxCell id="Iw-2HoXwkp1vUkzKYjUI-18" value="Controller" style="shape=umlLifeline;perimeter=lifelinePerimeter;whiteSpace=wrap;html=1;container=1;collapsible=0;recursiveResize=0;outlineConnect=0;rounded=1;shadow=0;comic=0;labelBackgroundColor=none;strokeWidth=1;fontFamily=Verdana;fontSize=12;align=center;fillColor=#dae8fc;strokeColor=#6c8ebf;" parent="1" vertex="1">
          <mxGeometry x="591" y="476" width="100" height="320" as="geometry" />
        </mxCell>
        <mxCell id="Iw-2HoXwkp1vUkzKYjUI-19" value="" style="html=1;points=[];perimeter=orthogonalPerimeter;rounded=0;shadow=0;comic=0;labelBackgroundColor=none;strokeWidth=1;fontFamily=Verdana;fontSize=12;align=center;fillColor=#dae8fc;strokeColor=#6c8ebf;" parent="Iw-2HoXwkp1vUkzKYjUI-18" vertex="1">
          <mxGeometry x="45" y="60" width="10" height="220" as="geometry" />
        </mxCell>
        <mxCell id="Iw-2HoXwkp1vUkzKYjUI-20" value="DB" style="shape=umlLifeline;perimeter=lifelinePerimeter;whiteSpace=wrap;html=1;container=1;collapsible=0;recursiveResize=0;outlineConnect=0;rounded=1;shadow=0;comic=0;labelBackgroundColor=none;strokeWidth=1;fontFamily=Verdana;fontSize=12;align=center;fillColor=#dae8fc;strokeColor=#6c8ebf;" parent="1" vertex="1">
          <mxGeometry x="791" y="476" width="100" height="320" as="geometry" />
        </mxCell>
        <mxCell id="Iw-2HoXwkp1vUkzKYjUI-21" value="" style="html=1;points=[];perimeter=orthogonalPerimeter;rounded=0;shadow=0;comic=0;labelBackgroundColor=none;strokeWidth=1;fontFamily=Verdana;fontSize=12;align=center;fillColor=#dae8fc;strokeColor=#6c8ebf;" parent="Iw-2HoXwkp1vUkzKYjUI-20" vertex="1">
          <mxGeometry x="45" y="60" width="10" height="220" as="geometry" />
        </mxCell>
        <mxCell id="Iw-2HoXwkp1vUkzKYjUI-22" value="Passenger" style="shape=umlLifeline;perimeter=lifelinePerimeter;whiteSpace=wrap;html=1;container=1;collapsible=0;recursiveResize=0;outlineConnect=0;rounded=1;shadow=0;comic=0;labelBackgroundColor=none;strokeWidth=1;fontFamily=Verdana;fontSize=12;align=center;fillColor=#dae8fc;strokeColor=#6c8ebf;" parent="1" vertex="1">
          <mxGeometry x="185" y="476" width="100" height="320" as="geometry" />
        </mxCell>
        <mxCell id="Iw-2HoXwkp1vUkzKYjUI-23" value="" style="html=1;points=[];perimeter=orthogonalPerimeter;rounded=0;shadow=0;comic=0;labelBackgroundColor=none;strokeWidth=1;fontFamily=Verdana;fontSize=12;align=center;fillColor=#dae8fc;strokeColor=#6c8ebf;" parent="Iw-2HoXwkp1vUkzKYjUI-22" vertex="1">
          <mxGeometry x="45" y="60" width="10" height="220" as="geometry" />
        </mxCell>
        <mxCell id="Iw-2HoXwkp1vUkzKYjUI-24" value="4. Input info valided" style="html=1;verticalAlign=bottom;endArrow=block;labelBackgroundColor=none;fontFamily=Verdana;fontSize=12;edgeStyle=elbowEdgeStyle;elbow=vertical;" parent="1" source="Iw-2HoXwkp1vUkzKYjUI-19" target="Iw-2HoXwkp1vUkzKYjUI-21" edge="1">
          <mxGeometry relative="1" as="geometry">
            <mxPoint x="669" y="576" as="sourcePoint" />
            <Array as="points">
              <mxPoint x="699" y="636" />
              <mxPoint x="619" y="576" />
            </Array>
          </mxGeometry>
        </mxCell>
        <mxCell id="Iw-2HoXwkp1vUkzKYjUI-25" value="1. Reservation Info or login" style="html=1;verticalAlign=bottom;endArrow=block;entryX=0;entryY=0.452;labelBackgroundColor=none;fontFamily=Verdana;fontSize=12;edgeStyle=elbowEdgeStyle;elbow=vertical;entryDx=0;entryDy=0;entryPerimeter=0;exitX=0.944;exitY=0.453;exitDx=0;exitDy=0;exitPerimeter=0;" parent="1" source="Iw-2HoXwkp1vUkzKYjUI-23" target="Iw-2HoXwkp1vUkzKYjUI-16" edge="1">
          <mxGeometry x="-0.0024" relative="1" as="geometry">
            <mxPoint x="269" y="635" as="sourcePoint" />
            <mxPoint x="439" y="634.99" as="targetPoint" />
            <Array as="points" />
            <mxPoint as="offset" />
          </mxGeometry>
        </mxCell>
        <mxCell id="Iw-2HoXwkp1vUkzKYjUI-26" value="3. getHistoryFlight()" style="html=1;verticalAlign=bottom;endArrow=block;labelBackgroundColor=none;fontFamily=Verdana;fontSize=12;edgeStyle=elbowEdgeStyle;elbow=vertical;entryX=0.03;entryY=0.451;entryDx=0;entryDy=0;entryPerimeter=0;exitX=1.011;exitY=0.451;exitDx=0;exitDy=0;exitPerimeter=0;" parent="1" source="Iw-2HoXwkp1vUkzKYjUI-16" target="Iw-2HoXwkp1vUkzKYjUI-19" edge="1">
          <mxGeometry relative="1" as="geometry">
            <mxPoint x="454" y="635" as="sourcePoint" />
            <mxPoint x="596" y="637" as="targetPoint" />
            <Array as="points" />
          </mxGeometry>
        </mxCell>
        <mxCell id="Iw-2HoXwkp1vUkzKYjUI-27" value="&lt;font face=&quot;Verdana&quot; style=&quot;font-size: 12px;&quot;&gt;6. View List flight history&lt;/font&gt;" style="html=1;verticalAlign=bottom;endArrow=open;dashed=1;endSize=8;edgeStyle=elbowEdgeStyle;elbow=vertical;curved=0;rounded=0;exitX=-0.039;exitY=0.728;exitDx=0;exitDy=0;exitPerimeter=0;entryX=1.011;entryY=0.725;entryDx=0;entryDy=0;entryPerimeter=0;" parent="1" source="Iw-2HoXwkp1vUkzKYjUI-19" target="Iw-2HoXwkp1vUkzKYjUI-16" edge="1">
          <mxGeometry relative="1" as="geometry">
            <mxPoint x="612" y="696" as="sourcePoint" />
            <mxPoint x="454" y="696" as="targetPoint" />
          </mxGeometry>
        </mxCell>
        <mxCell id="Iw-2HoXwkp1vUkzKYjUI-28" value="&lt;font face=&quot;Verdana&quot; style=&quot;font-size: 12px;&quot;&gt;5. List flight history&lt;/font&gt;" style="html=1;verticalAlign=bottom;endArrow=open;dashed=1;endSize=8;edgeStyle=elbowEdgeStyle;elbow=vertical;curved=0;rounded=0;exitX=-0.041;exitY=0.723;exitDx=0;exitDy=0;exitPerimeter=0;" parent="1" source="Iw-2HoXwkp1vUkzKYjUI-21" target="Iw-2HoXwkp1vUkzKYjUI-19" edge="1">
          <mxGeometry relative="1" as="geometry">
            <mxPoint x="776" y="695" as="sourcePoint" />
            <mxPoint x="639" y="696" as="targetPoint" />
            <Array as="points">
              <mxPoint x="775" y="695" />
            </Array>
          </mxGeometry>
        </mxCell>
      </root>
    </mxGraphModel>
  </diagram>
</mxfile>
